 <svg  version="1.0" xmlns="http://www.w3.org/2000/svg"  width="450.000000pt" height="450.000000pt" viewBox="0 0 450.000000 450.000000"  preserveAspectRatio="xMidYMid meet">  <g transform="translate(0.000000,450.000000) scale(0.100000,-0.100000)" fill="#ffffff" stroke="none"> <path d="M2105 4312 c-94 -28 -184 -81 -262 -155 -92 -88 -135 -153 -199 -302 -59 -138 -72 -179 -154 -485 -53 -196 -67 -235 -108 -304 -56 -93 -98 -132 -212 -194 -65 -36 -109 -70 -188 -149 -56 -57 -111 -118 -122 -136 -11 -17 -20 -28 -20 -23 0 5 -33 -24 -73 -66 -52 -52 -99 -116 -157 -212 -57 -96 -92 -143 -114 -156 -107 -62 -175 -132 -154 -157 8 -10 7 -12 -4 -8 -36 14 -189 -118 -231 -201 -29 -56 9 -36 70 38 31 37 65 70 75 74 10 3 40 23 68 45 55 43 60 45 60 25 0 -18 -49 -56 -102 -81 -21 -9 -38 -23 -38 -31 0 -7 -17 -28 -37 -46 -93 -83 -97 -88 -76 -88 27 0 110 56 136 92 12 17 39 39 60 49 21 11 36 23 33 27 -3 4 9 9 26 10 25 2 29 0 23 -15 -4 -10 -12 -31 -18 -48 -5 -16 -14 -33 -19 -36 -5 -3 -31 -43 -58 -89 -42 -71 -49 -93 -55 -155 -9 -95 8 -257 36 -344 14 -42 31 -22 23 29 -15 107 -27 307 -20 327 5 13 9 13 22 2 12 -9 15 -32 14 -98 -3 -171 2 -277 10 -251 l8 25 3 -25 c5 -51 17 110 18 246 1 113 4 144 16 154 13 11 15 8 15 -16 0 -16 -4 -45 -9 -64 -6 -26 -2 -52 15 -105 13 -38 24 -78 24 -87 0 -22 36 -119 53 -141 11 -16 12 -15 14 9 1 20 -1 24 -9 13 -7 -10 -8 -9 -3 7 5 21 -7 82 -40 199 -9 33 -17 67 -17 75 1 38 32 190 48 235 9 28 19 56 20 63 2 6 10 12 18 12 13 0 3 -49 -32 -150 -3 -8 -5 -18 -4 -22 1 -3 -5 -38 -12 -77 -14 -73 -12 -93 17 -186 9 -27 19 -77 23 -110 6 -47 9 -55 14 -35 7 25 7 25 12 -5 3 -19 6 -9 7 29 0 32 -6 85 -14 117 -19 71 -21 117 -12 184 l8 50 -16 -40 c-11 -28 -14 -60 -11 -105 3 -42 2 -56 -4 -40 -13 40 -11 112 5 155 8 22 14 54 15 71 0 33 14 44 54 44 17 0 24 -9 32 -40 6 -22 8 -37 3 -35 -4 3 -10 19 -14 36 -5 21 -11 29 -22 25 -8 -3 -21 -6 -29 -6 -9 0 -14 -10 -13 -27 2 -24 2 -25 6 -5 2 12 11 22 19 22 16 0 44 -61 44 -97 0 -62 76 -118 156 -115 l51 2 21 -49 c28 -69 79 -146 154 -232 35 -41 98 -119 140 -174 107 -141 177 -200 271 -230 92 -29 122 -45 145 -79 28 -41 52 -150 52 -241 0 -69 16 -152 27 -141 3 3 12 -2 19 -12 8 -9 14 -12 14 -5 0 6 -4 15 -10 18 -6 4 -10 54 -10 118 0 140 -20 235 -63 307 -19 30 -60 103 -91 161 -78 143 -146 231 -242 309 -172 141 -207 191 -277 396 -53 155 -76 202 -122 253 -42 46 -142 94 -188 89 -29 -3 -32 -6 -33 -36 0 -18 -6 -38 -12 -44 -7 -7 -12 -25 -12 -40 0 -17 -5 -28 -14 -28 -20 0 -27 40 -14 78 14 38 1 57 -54 78 -18 7 -51 19 -73 27 -21 8 -41 20 -43 25 -2 6 16 25 40 42 129 94 190 93 296 -3 27 -26 41 -34 34 -21 -24 45 -128 114 -171 114 -18 0 -12 14 43 109 79 136 140 216 211 277 30 25 77 74 103 108 87 110 143 160 245 216 110 61 183 126 227 203 38 66 39 48 1 -35 -36 -81 -111 -179 -169 -223 -39 -30 -53 -35 -101 -35 -31 -1 -69 -6 -84 -13 -26 -11 -23 -12 40 -12 37 0 82 -4 100 -9 29 -7 36 -4 82 39 102 95 155 232 287 740 116 445 237 643 460 751 139 68 252 68 383 2 114 -58 259 -223 328 -374 54 -119 108 -404 123 -649 24 -395 46 -576 110 -895 63 -314 150 -594 241 -770 82 -158 300 -407 447 -508 80 -55 80 -41 0 18 -239 177 -467 581 -578 1019 -74 297 -138 671 -205 1196 -7 54 10 23 19 -34 16 -108 130 -284 329 -511 126 -144 157 -191 217 -334 64 -155 100 -212 189 -308 84 -90 118 -109 279 -163 125 -42 188 -77 221 -123 l21 -30 -31 -7 c-78 -17 -155 -64 -221 -133 -95 -101 -148 -225 -148 -347 0 -65 30 -179 61 -235 38 -69 62 -81 178 -90 122 -10 158 -29 226 -121 59 -80 78 -146 73 -254 -3 -46 -1 -82 4 -79 23 14 41 73 41 129 -1 71 -25 140 -78 219 l-38 58 18 31 c10 18 27 43 39 57 12 13 14 20 6 14 -29 -21 -50 -24 -50 -8 0 8 4 13 10 9 5 -3 16 8 24 24 10 18 12 31 6 33 -6 2 -13 28 -17 58 l-6 55 26 -24 26 -24 7 27 c4 18 1 33 -10 45 -10 11 -16 36 -16 67 0 27 -5 67 -12 89 -6 22 -12 42 -12 45 -2 13 -66 119 -76 125 -5 3 -10 15 -10 25 0 10 -11 31 -24 47 -13 15 -27 39 -31 53 -4 14 -14 33 -22 42 -8 9 -12 22 -8 27 9 16 35 13 35 -4 0 -20 72 -162 116 -226 20 -30 37 -61 39 -69 2 -8 13 -55 25 -105 17 -65 21 -107 17 -155 -5 -64 -5 -65 8 -25 11 33 14 36 15 15 l1 -25 10 25 c18 45 3 198 -25 263 -14 32 -26 62 -26 67 0 5 -15 26 -34 46 -34 37 -53 86 -35 92 17 7 9 22 -11 22 -23 0 -24 -8 -10 -44 15 -40 2 -31 -15 10 -19 47 -21 44 20 44 22 0 38 -6 44 -17 9 -16 10 -16 11 -1 0 9 4 18 10 20 6 2 4 14 -4 30 -10 19 -11 28 -3 31 6 2 -10 16 -36 31 -26 16 -61 47 -77 70 -41 56 -111 97 -255 146 -140 48 -201 86 -270 172 -27 34 -60 71 -71 82 -28 27 -76 124 -69 136 4 6 2 10 -4 10 -6 0 -7 7 -4 17 5 12 3 14 -7 8 -9 -5 -11 -4 -6 4 19 31 -112 246 -218 359 -153 162 -261 317 -315 454 -38 96 -46 127 -72 286 -22 143 -54 271 -89 365 -47 125 -197 312 -311 388 -107 71 -250 95 -364 61z m-1686 -2371 c7 -5 10 -14 7 -20 -11 -17 -23 -13 -29 9 -6 22 0 25 22 11z m90 -40 c12 -8 9 -16 -17 -46 -18 -19 -32 -43 -32 -51 0 -9 -29 -58 -65 -109 -36 -52 -65 -103 -65 -115 0 -22 -7 -25 -29 -11 -11 7 -2 29 46 108 34 54 72 118 85 143 30 57 51 90 58 90 3 0 11 -4 19 -9z m239 -76 c65 -57 116 -141 153 -253 59 -179 105 -245 281 -400 113 -100 149 -143 228 -272 28 -47 61 -95 73 -107 24 -27 19 -27 -48 -9 -116 31 -182 84 -302 240 -46 61 -113 145 -148 186 -79 92 -126 178 -160 295 -53 184 -77 234 -157 323 -62 68 -65 93 -7 60 23 -13 62 -41 87 -63z m-119 -49 c6 -25 11 -67 11 -94 0 -101 48 -185 107 -189 40 -2 59 -15 49 -32 -11 -17 -42 -13 -82 10 -74 41 -84 52 -78 82 4 17 0 37 -10 52 -10 15 -15 43 -14 72 1 26 -2 72 -7 102 -10 66 7 64 24 -3z m66 -16 c4 -6 -1 -7 -11 -3 -15 6 -16 -2 -11 -88 3 -55 2 -82 -3 -64 -4 17 -8 60 -9 98 -1 52 2 67 13 67 8 0 18 -4 21 -10z m3537 -48 c41 -19 49 -32 19 -32 -26 0 -101 50 -101 68 0 12 4 12 23 -2 12 -9 39 -25 59 -34z m-3652 -8 c0 -14 -31 -19 -43 -8 -3 4 -2 15 4 26 8 15 13 17 25 7 8 -6 14 -18 14 -25z m3445 -31 c3 -16 20 -49 37 -75 52 -82 118 -342 76 -300 -12 12 -18 35 -48 177 -9 42 -24 73 -49 104 -65 78 -73 91 -67 106 10 26 43 18 51 -12z m-3595 2 c0 -8 -7 -15 -15 -15 -9 0 -12 6 -9 15 4 8 10 15 15 15 5 0 9 -7 9 -15z m310 -42 c40 -107 37 -139 -8 -90 -27 28 -42 69 -42 113 0 54 25 42 50 -23z m3258 -55 c60 -87 85 -156 83 -226 -1 -32 27 -95 38 -87 3 1 7 -15 8 -37 2 -23 8 -47 15 -55 6 -8 12 -26 14 -41 1 -15 5 -60 9 -99 9 -80 7 -82 -45 -57 -35 18 -163 36 -168 24 -4 -11 -74 24 -94 47 -28 31 -68 166 -68 230 0 59 16 131 42 191 23 52 101 151 120 152 9 0 30 -19 46 -42z m162 -22 c0 -6 -7 -2 -15 8 -8 11 -15 25 -15 30 0 6 7 2 15 -8 8 -11 15 -25 15 -30z m30 -102 l25 -15 -27 5 c-26 6 -27 5 -23 -31 4 -35 4 -36 -4 -8 -19 66 -14 75 29 49z m35 -105 c8 -30 15 -61 15 -69 -1 -23 -38 30 -45 63 -18 95 -18 93 -1 76 10 -9 23 -40 31 -70z m115 -63 c0 -5 -3 -7 -6 -4 -10 10 -32 107 -26 113 5 5 30 -81 32 -109z m-137 -99 c9 -45 17 -116 19 -158 2 -64 -1 -80 -19 -102 l-20 -27 0 25 c0 14 4 22 9 19 6 -4 8 32 6 95 -1 56 -5 101 -9 101 -6 0 -29 116 -29 146 1 43 28 -18 43 -99z m-2680 -456 c11 -8 23 -25 29 -36 8 -18 8 -18 -9 2 -10 11 -34 31 -53 43 -27 17 -30 20 -10 15 14 -4 33 -15 43 -24z"/> <path d="M2015 3946 c-8 -19 -15 -38 -15 -42 0 -4 -25 -59 -56 -123 -58 -121 -72 -183 -44 -201 42 -27 122 8 145 63 19 45 26 157 18 251 -9 90 -25 107 -48 52z m-6 -278 c-6 -16 -24 -35 -39 -43 -54 -28 -54 9 3 118 l42 82 3 -64 c2 -35 -2 -77 -9 -93z"/> <path d="M2486 3923 c-11 -68 -6 -180 9 -224 20 -56 57 -94 111 -115 58 -22 88 -7 79 39 -15 75 -158 337 -184 337 -5 0 -11 -17 -15 -37z m100 -176 c60 -123 59 -155 -4 -102 -16 14 -37 40 -46 59 -18 39 -23 151 -5 140 6 -3 31 -47 55 -97z"/> <path d="M1792 3883 c-36 -85 -62 -185 -82 -308 -23 -144 -53 -443 -48 -476 2 -13 11 55 21 151 33 321 59 461 112 608 28 78 27 94 -3 25z"/> <path d="M2385 3865 c4 -22 13 -94 20 -160 12 -118 12 -119 14 -43 1 73 -21 224 -35 237 -4 3 -3 -12 1 -34z"/> <path d="M2220 3638 c-22 -40 -47 -92 -56 -116 -13 -31 -20 -39 -26 -30 -6 9 -7 5 -3 -9 4 -15 2 -23 -6 -23 -14 0 -7 -119 16 -270 8 -52 15 -120 15 -150 1 -30 5 -73 10 -95 5 -27 7 -7 4 65 -4 86 -2 100 7 80 7 -14 15 -81 19 -150 l7 -125 1 111 c2 91 5 111 17 111 12 0 15 -17 17 -81 2 -76 2 -77 5 -18 3 52 7 62 22 62 10 0 25 7 32 17 12 14 15 11 20 -33 l6 -49 1 57 c2 45 6 60 23 72 18 12 23 33 36 173 16 177 13 283 -12 361 -24 78 -27 59 -5 -28 27 -103 24 -109 -9 -18 -29 79 -74 158 -91 158 -5 0 -27 -33 -50 -72z m88 -55 c54 -107 56 -119 42 -297 -12 -164 -24 -207 -59 -226 -54 -28 -94 43 -116 205 -9 66 -15 134 -12 151 8 45 98 224 113 224 2 0 17 -26 32 -57z"/> <path d="M2742 3700 c0 -8 4 -26 8 -40 6 -20 8 -21 8 -5 0 11 -3 29 -8 40 -5 12 -8 14 -8 5z"/> <path d="M1766 3589 c-9 -41 -27 -321 -22 -327 3 -3 6 3 6 14 1 10 7 89 14 174 13 147 13 192 2 139z"/> <path d="M2732 3290 c-2 -350 16 -1145 27 -1220 13 -84 13 603 0 875 -6 127 -14 320 -18 430 l-8 200 -1 -285z"/> <path d="M2771 3545 c-1 -16 4 -82 10 -145 6 -63 14 -205 18 -315 l8 -200 1 174 c1 95 -5 246 -14 335 -15 163 -22 205 -23 151z"/> <path d="M1965 3245 c3 -27 12 -189 20 -359 20 -415 36 -596 71 -816 36 -232 103 -520 177 -765 49 -162 75 -259 106 -395 l11 -45 -5 55 c-3 30 -27 143 -55 250 -132 510 -205 864 -234 1141 -9 79 -29 317 -46 529 -17 212 -35 401 -40 420 -8 31 -9 30 -5 -15z"/> <path d="M1581 3219 c-19 -89 -40 -226 -61 -414 -26 -228 -48 -350 -115 -655 -29 -135 -60 -274 -67 -310 -17 -87 -14 -426 6 -595 l15 -130 -5 150 c-6 199 11 523 35 682 11 70 38 211 60 313 45 211 61 316 91 585 11 105 29 241 40 304 20 118 21 163 1 70z"/> <path d="M1767 3038 c-9 -144 7 -440 25 -468 7 -11 8 -10 2 5 -3 11 -9 151 -13 310 -6 287 -6 288 -14 153z"/> <path d="M2617 2742 c-16 -259 9 -901 49 -1267 23 -219 31 -254 67 -296 18 -20 45 -53 60 -73 16 -21 31 -35 33 -33 3 2 -9 53 -26 112 -107 368 -155 816 -173 1600 l-2 100 -8 -143z"/> <path d="M2870 2342 c0 -49 29 -365 46 -497 26 -205 63 -351 134 -533 87 -223 180 -374 305 -497 94 -93 180 -147 283 -178 67 -21 73 -24 82 -57 15 -52 12 -160 -5 -218 -9 -29 -14 -56 -11 -60 2 -4 -4 -8 -14 -9 -15 -1 -17 3 -10 30 5 18 11 67 15 109 7 87 -3 118 -39 118 -34 0 -38 -10 -14 -42 11 -17 22 -44 24 -61 2 -17 3 -28 1 -26 -1 2 -11 15 -22 28 -11 14 -14 21 -6 16 9 -5 12 -3 9 6 -2 7 -24 24 -49 37 -65 35 -111 27 -205 -37 -63 -43 -83 -51 -121 -51 -89 0 -146 48 -231 194 -25 43 -57 86 -71 94 -17 9 -43 49 -74 111 -26 53 -45 83 -41 66 3 -16 22 -58 40 -93 19 -34 34 -64 34 -66 0 -1 -19 -9 -42 -15 -24 -7 -49 -18 -56 -23 -21 -17 -24 -3 -13 54 21 110 23 163 8 200 -16 39 -51 66 -62 48 -3 -5 -17 -10 -30 -10 -55 0 -168 189 -223 375 -34 116 -45 178 -77 445 -12 107 -23 176 -24 153 -2 -80 40 -408 75 -580 52 -259 123 -456 172 -478 14 -6 20 -15 16 -25 -4 -8 -8 -82 -9 -164 -3 -124 1 -169 20 -270 13 -67 27 -145 31 -173 3 -29 11 -50 16 -47 5 3 6 -5 2 -20 -4 -16 -2 -26 5 -26 21 0 17 79 -11 255 -28 172 -30 360 -5 398 21 32 5 37 -17 5 -9 -12 -16 -18 -16 -12 0 6 9 23 21 38 l21 27 -35 32 c-36 34 -64 77 -49 77 5 0 19 -11 32 -25 19 -20 26 -23 38 -12 13 10 15 9 9 -6 -6 -16 -3 -18 22 -12 25 5 30 2 38 -22 6 -16 7 -54 2 -88 -12 -95 -11 -147 3 -139 8 5 9 0 5 -16 -4 -17 -3 -20 6 -11 17 17 31 13 17 -4 -16 -19 -16 -19 49 6 54 20 55 20 80 1 14 -10 46 -52 71 -93 52 -86 116 -154 165 -175 19 -8 58 -14 87 -14 46 0 65 7 138 50 109 64 153 66 218 7 18 -17 22 -31 22 -79 0 -65 17 -96 40 -75 10 10 12 8 6 -7 -7 -19 -6 -19 13 -2 59 53 83 220 47 319 -10 27 -16 51 -13 53 2 2 31 11 63 20 32 8 83 32 113 52 94 65 106 72 119 72 30 0 103 -85 149 -175 26 -51 51 -91 54 -89 4 2 9 -2 12 -8 4 -10 7 -11 18 0 9 9 10 12 1 12 -7 0 -12 8 -12 18 0 59 -126 248 -184 276 -45 21 -65 16 -136 -39 -108 -84 -170 -99 -264 -66 -116 41 -301 180 -383 289 -59 77 -166 291 -218 431 -80 216 -161 573 -186 816 -11 110 -19 146 -19 87z m680 -1613 c18 -15 11 -13 -28 7 -29 15 -58 34 -65 43 -14 18 56 -20 93 -50z m177 -71 c-12 -13 -24 -19 -25 -15 -5 11 18 37 34 37 9 0 5 -8 -9 -22z"/> <path d="M3496 2190 c19 -77 131 -278 204 -370 39 -50 19 -9 -37 72 -31 46 -83 137 -115 203 -32 66 -56 109 -52 95z"/> <path d="M2971 2170 c-2 -28 64 -395 67 -374 2 12 -11 100 -28 195 -32 180 -38 205 -39 179z"/> <path d="M1791 2139 c-1 -19 44 -249 65 -334 34 -138 73 -229 233 -549 156 -310 211 -435 211 -475 -1 -11 -8 -7 -21 12 -42 55 -129 76 -163 38 -20 -22 -39 -81 -25 -81 5 0 9 -27 9 -61 0 -39 4 -58 10 -54 7 5 8 -3 3 -22 -11 -40 -7 -153 6 -183 10 -24 11 -24 7 7 -3 22 0 30 8 27 10 -4 12 34 12 163 l-1 168 32 3 c42 4 94 -42 118 -105 10 -26 20 -42 23 -35 5 17 42 -25 42 -48 0 -9 4 -20 9 -25 6 -6 11 -32 13 -60 l3 -50 9 49 c6 35 5 50 -4 56 -9 6 -9 9 -1 15 9 5 9 11 -1 23 -11 15 -11 15 4 4 11 -9 18 -10 23 -2 3 5 11 10 16 10 6 0 7 -4 4 -10 -3 -6 0 -10 8 -10 8 0 37 -20 65 -45 54 -49 108 -146 137 -250 27 -94 56 -163 73 -177 14 -11 15 -10 8 7 -9 26 -32 115 -46 185 -16 82 -81 208 -135 262 -48 49 -130 88 -184 88 -27 0 -29 3 -35 58 -10 91 -62 275 -107 381 -22 53 -96 204 -164 336 -137 267 -182 379 -231 570 -18 72 -33 123 -33 114z"/> <path d="M1681 2114 c-5 -54 142 -644 157 -630 2 3 -12 60 -31 128 -20 68 -52 197 -72 288 -40 181 -52 231 -54 214z"/> <path d="M997 1824 c31 -154 43 -199 43 -165 0 29 -62 317 -70 325 -4 4 8 -68 27 -160z"/> <path d="M3765 1950 c3 -5 36 -31 73 -57 37 -25 79 -58 95 -72 15 -13 27 -20 27 -15 0 6 -10 20 -22 32 -29 26 -182 126 -173 112z"/> <path d="M1665 1614 c2 -16 9 -63 15 -104 17 -119 35 -171 145 -405 57 -121 121 -260 143 -310 21 -49 55 -121 75 -160 54 -105 48 -47 -13 113 -53 142 -88 215 -199 417 -77 141 -112 234 -141 376 -18 84 -36 140 -25 73z"/> <path d="M3180 1546 c0 -18 80 -177 118 -232 100 -147 269 -328 336 -360 l31 -15 -30 23 c-62 47 -150 136 -229 233 -108 131 -120 150 -177 263 -27 54 -49 93 -49 88z"/> <path d="M4305 1518 c4 -18 14 -46 21 -63 8 -16 12 -21 8 -10 -3 11 -8 34 -11 50 -4 23 -2 27 6 15 6 -9 11 -10 11 -3 0 23 -12 43 -27 43 -11 0 -13 -7 -8 -32z"/> <path d="M4358 1473 c3 -32 9 -67 14 -78 5 -13 7 1 4 42 -2 33 -8 69 -13 78 -7 11 -8 -2 -5 -42z"/> <path d="M3706 1434 c-8 -21 -6 -262 2 -292 4 -13 7 51 7 142 0 91 -1 166 -1 166 -1 0 -5 -7 -8 -16z"/> <path d="M3000 1337 c0 -32 137 -353 147 -344 2 2 -17 46 -41 98 -24 52 -56 129 -71 172 -23 65 -35 90 -35 74z"/> <path d="M1620 791 c23 -59 50 -197 50 -256 0 -23 -7 -82 -15 -130 -24 -135 -4 -165 31 -47 8 29 19 50 24 47 4 -3 11 -42 15 -87 8 -102 12 -116 35 -128 28 -15 64 20 116 116 43 78 63 96 64 56 1 -9 6 -30 13 -45 12 -27 12 -26 14 25 1 35 -7 80 -25 133 l-26 80 -7 -55 c-5 -37 -26 -92 -64 -167 -69 -136 -84 -153 -77 -84 8 85 -16 219 -53 301 -19 41 -41 103 -50 137 -16 64 -50 153 -59 153 -3 0 3 -22 14 -49z"/> <path d="M4215 774 c3 -23 12 -54 20 -70 l15 -29 0 30 c0 17 -9 48 -20 70 l-20 40 5 -41z"/> <path d="M3030 694 c0 -12 101 -117 144 -148 41 -31 126 -79 126 -72 0 3 -26 22 -57 42 -32 20 -93 70 -135 112 -43 42 -78 72 -78 66z"/> <path d="M2321 612 c0 -18 4 -54 11 -79 9 -39 12 -43 19 -25 9 24 0 92 -12 92 -4 0 -10 10 -12 23 -3 15 -5 12 -6 -11z"/> <path d="M1999 563 c-16 -18 -18 -104 -5 -202 11 -77 21 -63 31 42 4 42 11 77 16 77 4 0 15 -13 24 -29 23 -45 35 -47 30 -6 -5 39 -28 89 -53 118 -19 21 -26 21 -43 0z"/> </g> </svg> 