<?xml version="1.0" standalone="no"?>
<!DOCTYPE svg PUBLIC "-//W3C//DTD SVG 20010904//EN"
 "http://www.w3.org/TR/2001/REC-SVG-20010904/DTD/svg10.dtd">
<svg version="1.0" xmlns="http://www.w3.org/2000/svg"
 width="300.000000pt" height="300.000000pt" viewBox="0 0 300.000000 300.000000"
 preserveAspectRatio="xMidYMid meet">
<metadata>
Created by potrace 1.10, written by Peter Selinger 2001-2011
</metadata>
<g transform="translate(0.000000,300.000000) scale(0.100000,-0.100000)"
fill="#000000" stroke="none">
<path d="M1384 2882 c-106 -38 -203 -119 -257 -217 -40 -70 -86 -189 -106
-272 -35 -148 -83 -298 -106 -339 -31 -52 -93 -108 -151 -135 -78 -37 -299
-269 -368 -388 -27 -45 -60 -90 -74 -99 -14 -9 -53 -43 -86 -74 -34 -31 -80
-74 -104 -94 -45 -39 -79 -91 -67 -102 4 -4 26 14 50 41 24 26 46 47 50 47 4
0 24 14 46 31 32 25 42 28 59 19 11 -6 18 -16 14 -22 -4 -7 -9 -6 -15 3 -6 11
-11 10 -26 -3 -10 -8 -33 -23 -51 -32 -17 -9 -32 -21 -32 -26 0 -5 -19 -27
-42 -49 -36 -34 -40 -41 -22 -41 11 0 44 20 73 45 82 70 89 63 34 -34 -45 -80
-58 -166 -38 -251 7 -30 16 -66 19 -80 3 -14 12 -34 21 -45 9 -11 14 -14 10
-7 -8 16 -14 71 -19 197 l-4 100 53 90 c70 116 81 132 91 122 5 -4 3 -16 -4
-25 -7 -9 -15 -24 -19 -32 -4 -8 -26 -45 -51 -83 l-44 -67 1 -132 c1 -91 6
-135 14 -140 8 -5 13 1 15 20 1 15 5 43 8 62 l6 35 28 -62 c16 -35 31 -63 33
-63 9 0 -3 77 -22 144 -17 56 -19 77 -10 120 14 73 42 156 52 156 4 0 6 -8 3
-18 -3 -9 -14 -56 -25 -105 l-19 -87 25 -92 c13 -51 26 -94 28 -96 11 -11 14
62 4 104 -12 51 -13 90 -3 137 8 37 20 34 28 -7 9 -46 56 -86 102 -86 30 0 36
-5 59 -50 14 -27 62 -96 107 -152 45 -57 97 -122 115 -145 43 -54 110 -100
176 -121 68 -22 85 -53 96 -169 4 -48 14 -100 22 -113 13 -23 14 -19 17 59 4
119 -8 164 -85 303 -68 121 -111 174 -247 296 -50 44 -81 103 -130 243 -16 44
-42 94 -62 117 -35 41 -111 79 -137 69 -8 -3 -18 -26 -21 -51 -4 -25 -11 -48
-17 -51 -15 -10 -23 24 -11 50 13 29 -3 45 -70 70 -26 10 -45 22 -42 27 13 21
99 68 125 68 25 0 96 -40 111 -64 5 -7 8 -8 8 0 0 24 -73 74 -109 74 -37 0 60
147 187 284 62 66 116 120 120 120 4 -1 33 -4 64 -8 54 -6 59 -4 92 25 20 17
49 58 65 92 40 84 49 126 12 56 -44 -83 -112 -149 -153 -149 -18 0 -44 -3 -58
-7 -43 -11 -8 20 80 71 72 41 150 119 150 148 0 5 4 7 8 4 4 -3 25 57 46 132
20 75 49 178 62 227 80 287 232 451 419 450 79 -1 121 -18 193 -80 60 -52 131
-156 159 -231 34 -95 62 -268 73 -454 12 -200 23 -294 55 -466 43 -236 102
-437 166 -569 63 -131 225 -316 321 -368 34 -19 33 -18 -45 46 -25 22 -71 71
-101 110 -183 242 -267 499 -356 1094 -32 220 -37 273 -16 208 31 -96 93 -188
241 -355 37 -42 72 -96 97 -150 64 -141 76 -163 124 -223 50 -64 83 -88 164
-117 30 -11 75 -28 99 -36 24 -9 59 -30 78 -47 l35 -30 -54 -20 c-79 -30 -142
-87 -180 -165 -29 -59 -33 -76 -33 -147 0 -62 6 -92 24 -133 28 -63 59 -82
133 -82 64 0 105 -23 147 -80 41 -57 53 -100 49 -175 -2 -36 -3 -65 -2 -65 1
0 12 15 23 34 34 55 22 145 -30 217 -20 29 -21 41 -4 82 4 10 3 17 -4 17 -6 0
-16 -11 -21 -24 -17 -46 -25 -34 -26 42 -2 76 -15 146 -34 180 -5 9 -19 50
-29 90 -12 44 -32 88 -50 111 -33 41 -39 61 -18 61 20 0 73 -108 93 -190 10
-41 23 -78 27 -81 5 -3 16 -45 25 -93 9 -47 20 -86 23 -86 8 0 29 48 29 66 0
9 5 12 12 8 8 -5 9 -2 5 10 -4 10 -7 22 -7 27 0 6 -4 8 -8 5 -5 -3 -10 20 -11
50 -2 65 -64 208 -87 204 -5 -1 -10 4 -13 11 -2 6 1 9 7 5 6 -3 0 14 -14 39
-27 52 -28 55 -14 55 5 0 28 -35 50 -77 22 -43 49 -94 60 -113 11 -19 20 -43
20 -53 0 -10 3 -16 8 -14 4 3 8 -23 10 -57 1 -33 7 -63 12 -64 6 -2 8 -9 4
-15 -3 -7 2 -3 11 8 13 16 15 32 11 74 -4 30 -11 60 -16 66 -5 6 -11 21 -13
32 -2 12 -8 27 -13 35 -11 13 -44 98 -44 111 0 3 7 4 15 1 9 -4 15 0 15 10 0
9 -8 16 -20 16 -21 0 -70 27 -70 39 0 4 9 7 19 7 11 0 18 -4 15 -7 -6 -10 6
-17 39 -23 24 -4 25 -3 14 15 -6 10 -14 19 -17 19 -4 0 -33 26 -66 58 -43 43
-75 65 -119 81 -33 12 -80 29 -104 38 -85 31 -161 123 -220 264 -36 87 -89
164 -209 306 -129 151 -163 223 -193 403 -39 230 -93 352 -203 461 -106 105
-229 142 -342 101z m-913 -1645 c65 -49 101 -103 133 -197 37 -109 65 -149
177 -252 49 -45 106 -108 126 -138 19 -30 48 -74 64 -98 l29 -42 -28 6 c-83
21 -139 63 -211 160 -25 33 -70 89 -99 123 -63 75 -95 135 -117 221 -20 79
-53 143 -99 199 -20 24 -36 45 -36 47 0 11 23 1 61 -29z m-45 -99 c5 -84 32
-140 68 -144 32 -3 36 -5 36 -14 0 -18 -43 -11 -76 12 -34 23 -34 23 -50 183
-4 41 -3 47 7 31 6 -10 13 -41 15 -68z m2263 -128 c13 -24 19 -40 12 -35 -15
9 -8 -34 16 -100 27 -75 55 -186 49 -201 -4 -10 -11 -11 -30 -4 -13 5 -48 10
-76 11 -63 3 -91 32 -110 109 -16 66 -8 123 28 203 26 57 32 63 58 62 23 -1
34 -10 53 -45z"/>
<path d="M1354 2649 c-6 -8 -15 -25 -19 -39 -4 -14 -23 -56 -42 -93 -40 -81
-42 -130 -5 -135 72 -11 110 97 84 242 -6 31 -9 36 -18 25z"/>
<path d="M1654 2595 c-14 -93 15 -175 71 -202 39 -19 65 -12 65 17 0 25 -101
222 -117 227 -7 3 -14 -13 -19 -42z"/>
<path d="M1182 2558 c-33 -91 -55 -212 -68 -383 -10 -130 2 -101 15 40 14 136
45 301 67 353 8 19 12 37 10 39 -2 3 -13 -20 -24 -49z"/>
<path d="M1598 2505 c2 -49 6 -92 8 -94 7 -8 2 134 -6 159 -4 14 -5 -15 -2
-65z"/>
<path d="M1456 2377 l-46 -92 11 -90 c6 -50 16 -101 22 -115 6 -14 17 -65 24
-115 l12 -90 -5 78 c-3 42 -3 77 0 77 2 0 12 -8 21 -17 14 -13 21 -14 35 -5
16 10 19 8 23 -11 3 -17 5 -15 6 9 0 16 6 35 12 41 21 21 39 310 19 298 -7 -4
-9 3 -5 22 4 17 3 23 -2 16 -6 -8 -16 4 -31 37 -13 28 -29 50 -36 50 -7 0 -34
-42 -60 -93z m89 -31 c15 -39 16 -60 8 -156 -10 -117 -21 -142 -51 -124 -39
25 -57 206 -26 267 36 70 46 72 69 13z"/>
<path d="M1167 2296 c-4 -54 -6 -101 -3 -103 6 -6 19 160 14 183 -2 10 -7 -25
-11 -80z"/>
<path d="M1826 1890 c2 -288 8 -487 14 -505 11 -33 4 555 -10 830 -5 94 -7
-29 -4 -325z"/>
<path d="M1858 2200 c2 -80 6 -147 8 -149 7 -8 2 172 -6 234 -4 36 -5 2 -2
-85z"/>
<path d="M1316 2060 c25 -621 65 -854 243 -1440 l10 -35 -5 35 c-3 19 -30 132
-59 250 -105 419 -125 540 -160 975 -14 176 -28 325 -30 330 -3 6 -2 -46 1
-115z"/>
<path d="M1055 2158 c-8 -25 -25 -136 -45 -303 -11 -93 -39 -253 -61 -355 -70
-322 -72 -338 -64 -510 3 -85 10 -175 15 -200 6 -31 7 -9 4 70 -8 178 11 389
55 610 48 236 46 225 70 435 11 94 24 191 29 218 9 44 7 63 -3 35z"/>
<path d="M1177 2019 c-6 -70 6 -305 16 -316 3 -3 -3 352 -6 382 -2 11 -6 -19
-10 -66z"/>
<path d="M1745 1605 c5 -436 37 -777 75 -819 11 -11 28 -32 39 -46 22 -28 38
-22 22 9 -19 35 -60 220 -80 366 -24 168 -41 381 -42 531 -1 60 -5 147 -9 194
-6 55 -7 -29 -5 -235z"/>
<path d="M1910 1569 c0 -48 33 -348 46 -419 69 -381 259 -669 481 -729 40 -11
42 -14 49 -59 5 -30 2 -73 -8 -120 -15 -70 -15 -72 3 -56 42 38 59 139 37 222
-2 8 13 19 36 27 21 7 58 28 82 45 29 20 51 29 63 25 23 -7 57 -51 95 -122 18
-31 33 -50 41 -46 32 12 -61 181 -118 213 -30 17 -23 19 -122 -47 -84 -57
-165 -38 -303 71 -73 58 -104 97 -164 212 -91 172 -161 413 -193 660 -15 114
-25 165 -25 123z"/>
<path d="M2330 1459 c-1 -31 135 -267 147 -255 3 2 -8 21 -23 42 -16 20 -50
78 -76 128 -26 50 -48 88 -48 85z"/>
<path d="M1191 1433 c-2 -25 50 -252 73 -321 14 -39 54 -127 89 -194 77 -146
163 -331 173 -373 l7 -30 -32 28 c-40 33 -75 35 -95 5 -11 -18 -13 -37 -7 -88
5 -36 6 -69 4 -73 -3 -4 -2 -30 2 -57 6 -43 9 -48 21 -36 10 11 14 42 14 115
0 55 4 102 9 105 29 18 83 -58 96 -133 6 -35 9 -41 17 -28 5 11 5 24 -2 36 -5
11 -10 24 -10 30 0 19 18 12 25 -10 6 -17 9 -18 23 -8 14 11 15 11 5 -1 -7 -8
-13 -28 -12 -45 l1 -30 9 33 c11 37 26 40 63 11 27 -21 86 -134 107 -207 7
-23 18 -47 26 -53 17 -14 17 -16 -7 86 -38 162 -96 237 -199 254 -34 6 -35 7
-47 78 -19 113 -38 162 -165 423 -78 162 -127 276 -143 335 -38 142 -44 161
-45 148z"/>
<path d="M1121 1404 c-3 -33 82 -381 96 -394 3 -3 3 6 -1 20 -7 27 -69 280
-84 345 -6 22 -10 35 -11 29z"/>
<path d="M643 1310 c3 -14 13 -61 22 -105 16 -77 25 -104 25 -74 -1 24 -40
192 -46 198 -4 3 -4 -5 -1 -19z"/>
<path d="M1601 1327 c-2 -18 31 -288 45 -363 34 -185 92 -353 127 -367 11 -4
12 -18 5 -69 -5 -34 -6 -88 -3 -118 8 -81 36 -232 46 -252 5 -10 6 -24 3 -33
-3 -8 -1 -15 5 -15 14 0 15 109 1 181 -13 65 -16 215 -6 247 14 41 25 22 19
-33 -6 -56 3 -69 26 -41 18 21 26 148 12 175 -10 18 -18 21 -41 16 -23 -5 -32
0 -59 32 -76 91 -122 231 -146 446 -14 124 -31 219 -34 194z m216 -694 c-4 -3
0 -15 9 -25 14 -14 14 -20 4 -33 -7 -8 -17 -15 -22 -15 -6 0 -5 7 2 15 10 12
10 18 0 30 -11 13 -7 35 7 35 4 0 3 -3 0 -7z"/>
<path d="M2530 1287 c0 -2 25 -23 56 -46 31 -23 54 -36 52 -29 -4 11 -108 84
-108 75z"/>
<path d="M1116 1030 c7 -81 33 -158 88 -269 24 -47 66 -138 94 -202 52 -120
92 -194 92 -170 0 32 -78 216 -156 370 -64 124 -90 188 -104 251 l-20 85 6
-65z"/>
<path d="M2906 978 c9 -57 14 -61 14 -10 0 22 -5 44 -10 47 -7 4 -8 -8 -4 -37z"/>
<path d="M2159 941 c51 -100 235 -311 272 -311 7 0 -7 14 -31 32 -56 42 -189
202 -229 278 -41 77 -50 78 -12 1z"/>
<path d="M1905 580 c8 -27 44 -90 51 -90 5 0 -45 101 -53 110 -3 3 -2 -6 2
-20z"/>
<path d="M1075 534 c31 -76 43 -203 26 -291 -8 -42 0 -76 13 -54 11 17 26 13
26 -8 0 -10 9 -30 21 -45 26 -33 48 -23 85 37 15 23 28 44 30 46 2 2 11 -2 20
-10 16 -13 17 -10 11 41 -3 30 -11 69 -18 85 l-12 30 -8 -41 c-8 -45 -74 -184
-87 -184 -4 0 -6 17 -4 38 5 49 -13 145 -37 196 -10 23 -26 69 -36 104 -10 35
-23 66 -28 69 -7 4 -7 -1 -2 -13z"/>
<path d="M1903 465 c-18 -8 -33 -17 -33 -20 0 -3 6 -3 13 1 8 5 8 2 -2 -9 -15
-19 -9 -21 36 -8 39 11 47 5 96 -71 80 -123 164 -150 263 -85 81 53 133 42
146 -32 13 -78 25 -71 36 22 9 71 1 107 -23 107 -20 0 -19 -14 2 -48 l18 -27
-33 28 c-48 39 -95 37 -158 -8 -55 -39 -99 -45 -142 -19 -28 16 -52 45 -105
129 -36 56 -60 64 -114 40z"/>
<path d="M2063 414 c27 -28 66 -61 88 -73 51 -29 50 -21 -2 14 -23 15 -62 46
-88 68 l-46 41 48 -50z"/>
<path d="M1329 367 c-10 -23 -10 -40 0 -88 6 -33 9 -65 5 -71 -4 -7 -3 -8 4
-4 6 4 14 23 18 42 5 29 10 35 26 31 14 -4 18 -2 14 10 -3 8 -6 22 -6 31 0 9
-11 31 -24 47 l-24 30 -13 -28z"/>
</g>
</svg>
